<svg width="64" height="80" viewBox="0 0 64 80" fill="none" xmlns="http://www.w3.org/2000/svg">
<path d="M62.8457 80C62.5055 80 62.1793 79.8641 61.9388 79.6221C61.6982 79.3801 61.5631 79.0519 61.5631 78.7097V22.4L44.2998 2.58064H8.97795C7.27717 2.58064 5.64604 3.26036 4.4434 4.47028C3.24076 5.68019 2.56513 7.32118 2.56513 9.03226V27.0968C2.56513 27.439 2.43 27.7672 2.18948 28.0092C1.94895 28.2512 1.62272 28.3871 1.28256 28.3871C0.942407 28.3871 0.616181 28.2512 0.375654 28.0092C0.135126 27.7672 0 27.439 0 27.0968V9.03226C0 6.63675 0.945887 4.33936 2.62958 2.64549C4.31327 0.951611 6.59685 0 8.97795 0H45.3515L64 21.4452V78.7097C64.0016 79.0307 63.8842 79.3407 63.6707 79.5793C63.4573 79.8179 63.1631 79.9679 62.8457 80ZM57.7154 23.0968C57.7154 22.7546 57.5803 22.4264 57.3398 22.1844C57.0992 21.9424 56.773 21.8064 56.4328 21.8064H48.0705C47.5331 21.8064 47.0176 21.5917 46.6376 21.2093C46.2576 20.827 46.0441 20.3084 46.0441 19.7677V9.75484C46.0441 9.41262 45.909 9.08442 45.6684 8.84244C45.4279 8.60046 45.1017 8.46451 44.7615 8.46451C44.4214 8.46451 44.0951 8.60046 43.8546 8.84244C43.6141 9.08442 43.4789 9.41262 43.4789 9.75484V19.7161C43.4789 20.9413 43.9627 22.1162 44.8238 22.9825C45.6849 23.8488 46.8528 24.3355 48.0705 24.3355H56.3046C56.4792 24.3532 56.6557 24.3348 56.8229 24.2812C56.9902 24.2276 57.1447 24.14 57.277 24.0239C57.4092 23.9077 57.5164 23.7656 57.5918 23.6061C57.6672 23.4466 57.7093 23.2733 57.7154 23.0968ZM5.23287 53.1355C5.30361 53.2055 5.388 53.2599 5.48071 53.2955C5.57342 53.331 5.67245 53.3468 5.77154 53.3419H10.9018V55.9226C10.9046 56.0246 10.9346 56.124 10.9888 56.2103C11.043 56.2966 11.1192 56.3666 11.2096 56.4129C11.4504 56.5275 11.7128 56.5891 11.9792 56.5935C12.2462 56.5952 12.5099 56.5333 12.7487 56.4129C12.8457 56.3727 12.9289 56.3049 12.9882 56.2178C13.0474 56.1307 13.0801 56.0281 13.0822 55.9226V53.3419H14.1082C14.2096 53.337 14.3084 53.3089 14.3973 53.2597C14.4862 53.2105 14.5628 53.1415 14.6212 53.0581C14.769 52.8758 14.8505 52.6481 14.8521 52.4129C14.8541 52.1733 14.7825 51.9389 14.6469 51.7419C14.5846 51.6582 14.503 51.591 14.4092 51.546C14.3154 51.5011 14.2121 51.4798 14.1082 51.4839H13.1078V48.9032C13.1097 48.7968 13.0819 48.692 13.0275 48.6007C12.9731 48.5095 12.8942 48.4355 12.8 48.3871C12.5489 48.2793 12.2778 48.2265 12.0048 48.2323C11.2866 48.2323 10.9275 48.4387 10.9275 48.9032V51.4839H7.798L12.0305 43.5355C12.0565 43.4339 12.0565 43.3274 12.0305 43.2258C12.0209 43.109 11.9832 42.9962 11.9206 42.8973C11.858 42.7984 11.7725 42.7163 11.6713 42.6581C11.4579 42.5153 11.2093 42.4349 10.9531 42.4258C10.7576 42.4196 10.5643 42.4697 10.3962 42.5703C10.228 42.6709 10.0919 42.8177 10.004 42.9935L5.13026 52.1806C5.09551 52.3161 5.09551 52.4581 5.13026 52.5935C5.09462 52.7808 5.13132 52.9746 5.23287 53.1355ZM17.1607 55.7161C18.1635 56.3885 19.3416 56.7473 20.5467 56.7473C21.7518 56.7473 22.9299 56.3885 23.9327 55.7161C24.3778 55.3033 24.7227 54.793 24.9406 54.2247C25.1585 53.6564 25.2437 53.0454 25.1896 52.4387V46.7097C25.2416 46.107 25.1554 45.5004 24.9375 44.9366C24.7195 44.3728 24.3758 43.867 23.9327 43.4581C22.9363 42.769 21.7557 42.4001 20.5467 42.4001C19.3376 42.4001 18.157 42.769 17.1607 43.4581C16.7268 43.8729 16.391 44.3804 16.1779 44.9431C15.9648 45.5059 15.8799 46.1096 15.9295 46.7097V52.3355C15.8778 52.9397 15.9616 53.5478 16.1747 54.115C16.3878 54.6823 16.7248 55.1941 17.1607 55.6129V55.7161ZM18.0842 46.8129C18.0139 46.4589 18.0316 46.0929 18.1356 45.7474C18.2396 45.4019 18.4268 45.0875 18.6806 44.8323C18.9343 44.577 19.2467 44.3887 19.5902 44.284C19.9336 44.1793 20.2974 44.1616 20.6493 44.2323C21.3132 44.1934 21.9662 44.4154 22.4705 44.8516C22.7005 45.0991 22.8763 45.3923 22.9868 45.7123C23.0972 46.0323 23.1398 46.3721 23.1118 46.7097V52.3355C23.1343 52.6766 23.0891 53.0188 22.9791 53.3422C22.869 53.6656 22.6961 53.9637 22.4705 54.2194C21.9662 54.6555 21.3132 54.8776 20.6493 54.8387C20.2974 54.9094 19.9336 54.8916 19.5902 54.787C19.2467 54.6823 18.9343 54.494 18.6806 54.2387C18.4268 53.9834 18.2396 53.6691 18.1356 53.3236C18.0316 52.9781 18.0139 52.6121 18.0842 52.2581V46.8129ZM20.6493 50.4516C20.893 50.4633 21.1319 50.3801 21.3162 50.2194C21.3944 50.1426 21.4554 50.0499 21.4952 49.9476C21.535 49.8452 21.5527 49.7356 21.5471 49.6258C21.5507 49.5201 21.5319 49.4149 21.4921 49.317C21.4523 49.2192 21.3924 49.1309 21.3162 49.0581C21.1319 48.8973 20.893 48.8141 20.6493 48.8258C20.4063 48.8191 20.1692 48.9017 19.9824 49.0581C19.8987 49.1262 19.832 49.2129 19.7874 49.3115C19.7429 49.41 19.7218 49.5176 19.7258 49.6258C19.7198 49.738 19.7398 49.8501 19.7844 49.9531C19.8289 50.0561 19.8967 50.1473 19.9824 50.2194C20.1611 50.3225 20.3672 50.3675 20.5723 50.3484L20.6493 50.4516ZM26.4978 53.2387C26.5724 53.3107 26.6612 53.3662 26.7583 53.4018C26.8555 53.4373 26.959 53.4521 27.0621 53.4452H32.1924V56.0258C32.2002 56.1298 32.2352 56.2299 32.2937 56.316C32.3523 56.402 32.4323 56.4711 32.5258 56.5161C32.7646 56.6366 33.0283 56.6985 33.2954 56.6968C33.5617 56.6923 33.8241 56.6307 34.0649 56.5161C34.1553 56.4698 34.2316 56.3998 34.2857 56.3135C34.3399 56.2272 34.37 56.1278 34.3727 56.0258V53.4452H35.3731C35.4754 53.4444 35.5758 53.4181 35.6653 53.3685C35.7549 53.319 35.8308 53.2477 35.8862 53.1613C36.0339 52.979 36.1154 52.7514 36.117 52.5161C36.1283 52.2791 36.0655 52.0444 35.9375 51.8452C35.8757 51.7529 35.7913 51.6783 35.6924 51.6286C35.5935 51.5788 35.4835 51.5557 35.3731 51.5613H34.3727V48.9032C34.3747 48.7968 34.3468 48.692 34.2924 48.6007C34.238 48.5095 34.1592 48.4355 34.0649 48.3871C33.8237 48.2765 33.5603 48.2235 33.2954 48.2323C32.5771 48.2323 32.1924 48.4387 32.1924 48.9032V51.4839H29.0116L33.2441 43.5355C33.2592 43.4328 33.2592 43.3285 33.2441 43.2258C33.2342 43.1058 33.1935 42.9904 33.1261 42.8909C33.0587 42.7914 32.9667 42.7112 32.8593 42.6581C32.6478 42.5114 32.398 42.4306 32.1411 42.4258C31.9499 42.4245 31.7621 42.4769 31.5989 42.5772C31.4357 42.6775 31.3037 42.8217 31.2176 42.9935L26.2413 52.2064C26.1639 52.3307 26.1197 52.4729 26.113 52.6194C26.126 52.7221 26.1601 52.8211 26.2131 52.9099C26.2661 52.9988 26.3368 53.0756 26.4208 53.1355L26.4978 53.2387Z" fill="#428DFF"/>
</svg>
