<svg width="66" height="78" viewBox="0 0 66 78" fill="none" xmlns="http://www.w3.org/2000/svg">
<path d="M57.5693 7.837C57.5363 7.81225 57.5006 7.79025 57.4676 7.7655C56.9506 7.3915 56.4226 7.03125 55.8863 6.682C55.8038 6.62975 55.7213 6.5775 55.6416 6.52525C55.1411 6.20625 54.6296 5.89825 54.1126 5.60125C54.0163 5.54625 53.9201 5.4885 53.8238 5.43625C53.2931 5.1365 52.7568 4.85325 52.2123 4.57825C52.1353 4.53975 52.0611 4.4985 51.9841 4.46C50.7218 3.83575 49.4211 3.2775 48.0873 2.7935C48.0598 2.7825 48.0296 2.77425 48.0021 2.766C47.3943 2.546 46.7756 2.3425 46.1541 2.1555C45.9698 2.1005 45.7856 2.051 45.6013 1.99875C45.1283 1.864 44.6526 1.73475 44.1713 1.6165C43.9376 1.55875 43.7038 1.5065 43.4673 1.45425C43.0273 1.35525 42.5846 1.26175 42.1363 1.17925C41.8806 1.1325 41.6248 1.08575 41.3663 1.04175C40.9263 0.9675 40.4808 0.90425 40.0353 0.8465C39.7796 0.8135 39.5238 0.77775 39.2653 0.7475C38.7868 0.69525 38.3028 0.654 37.8161 0.621C37.5906 0.6045 37.3678 0.5825 37.1423 0.56875C36.4328 0.52475 35.7206 0.5 35.0001 0.5C34.1943 0.5 33.3941 0.533 32.5993 0.5825C31.9173 0.8465 30.6881 1.4955 31.2848 2.57625C32.0906 4.0365 34.2796 6.05775 32.0906 6.39325C29.9016 6.72875 28.6338 8.189 26.6758 8.189C24.7178 8.189 19.7623 6.16775 19.5341 7.628C19.3031 9.08825 14.4658 11.6705 13.3136 11.5577C12.1613 11.445 11.5866 13.579 8.47356 13.579C7.65406 13.579 6.74656 13.7055 5.85281 13.8897C3.85356 16.2052 2.12931 18.76 0.721313 21.5045C1.19431 21.6502 1.73606 21.6943 2.36581 21.5512C5.36331 20.8775 9.27931 16.835 12.0431 18.8563C14.8068 20.8775 16.4211 21.7768 16.1901 25.5938C15.9591 29.4107 15.2688 34.127 19.4158 36.1483C23.5628 38.1695 21.0301 40.1908 24.2558 41.5382C27.4816 42.8857 31.8596 43.5595 33.0118 44.4588C34.1641 45.358 36.2376 47.3793 36.2376 47.3793C36.2376 47.3793 33.2428 50.748 34.3951 52.5437C35.5473 54.3395 41.0776 55.2388 40.6156 59.7295C40.1536 64.2202 36.7161 71.89 36.7161 73.4603C36.7161 75.0305 36.5456 77.3213 36.5456 77.3213C36.5456 77.3213 41.8448 75.3 42.9971 73.0532C44.1493 70.8065 48.9096 64.4457 50.2928 63.772C51.6761 63.0982 55.8231 60.4032 57.2063 57.7082C58.5896 55.0132 63.6578 51.87 58.5896 50.5225C53.5213 49.175 53.0593 44.907 49.1433 44.6842C45.2273 44.4587 46.2641 43.675 43.6131 43.785C40.9621 43.895 39.2351 45.1325 38.0828 45.358C36.9306 45.5835 35.4318 45.1325 35.2036 44.0105C34.9753 42.8885 33.8203 41.2028 33.0146 41.541C32.2088 41.8765 34.1668 39.5198 33.0146 39.2943C31.8623 39.0688 30.7266 40.8673 29.5083 40.8673C28.2901 40.8673 28.1746 36.2638 28.1746 36.2638C28.1746 36.2638 35.0881 35.4772 35.4318 36.2638C35.7783 37.0503 37.5053 38.846 38.0828 37.9468C38.6603 37.0475 36.9306 34.6908 37.2771 34.1297C37.6236 33.5687 45.3428 28.627 45.5711 26.6058C45.7993 24.5845 49.9491 24.81 49.7181 22.3377C49.4871 19.8655 47.1826 20.542 46.8388 19.1945C46.4923 17.847 44.9963 16.3868 43.8441 17.7343C43.5911 18.0285 43.2776 18.1852 42.9448 18.2815C43.4343 17.7397 43.7671 17.22 43.7286 16.9478C43.6131 16.1613 47.0698 14.2527 47.7601 13.3535C48.4503 12.4542 43.3821 9.5365 41.4241 8.86275C40.2223 8.45025 39.0673 8.376 38.3523 8.37875C38.2698 7.0615 38.3633 5.77175 39.1196 5.1585C40.5028 4.0365 41.7706 7.067 42.8073 7.067C43.8441 7.067 47.5318 7.17975 48.3376 8.30175C49.1433 9.42375 50.6421 10.9967 50.6421 12.006C50.6421 13.0153 52.0253 19.7527 55.2511 19.079C58.4768 18.4052 58.5923 16.384 60.0911 15.9358C61.5898 15.4875 63.0858 17.1705 65.9678 16.4967C65.9678 16.4967 65.7478 15.9963 65.2088 15.1658C63.0088 12.391 60.4376 9.9215 57.5693 7.837ZM38.6576 11.335C38.6521 11.269 38.6411 11.1865 38.6356 11.115C39.0563 11.28 39.4716 11.4148 39.8098 11.4478C40.9621 11.5605 41.4241 14.2555 39.1196 15.9385C37.3898 17.2008 38.1983 18.617 39.0921 19.464C38.5723 20.2367 37.9838 21.0727 37.1616 20.993C36.0093 20.8802 33.7048 19.6455 33.0146 18.6363C32.3243 17.627 34.3978 14.8193 35.7783 13.92C37.1616 13.018 38.7731 13.018 38.6576 11.335Z" fill="white"/>
</svg>
